<svg xmlns="http://www.w3.org/2000/svg" version="1.1" xmlns:xlink="http://www.w3.org/1999/xlink" width="512" height="512" x="0" y="0" viewBox="0 0 682.667 682.667" style="enable-background:new 0 0 512 512" xml:space="preserve" class=""><g><defs><clipPath id="a" clipPathUnits="userSpaceOnUse"><path d="M0 512h512V0H0Z" fill="#000000" opacity="1" data-original="#000000"></path></clipPath></defs><g clip-path="url(#a)" transform="matrix(1.33333 0 0 -1.33333 0 682.667)"><path d="M0 0a7.492 7.492 0 0 0-7.493-7.492A7.492 7.492 0 0 0-14.985 0a7.492 7.492 0 0 0 7.492 7.492A7.492 7.492 0 0 0 0 0" style="fill-opacity:1;fill-rule:nonzero;stroke:none" transform="translate(180.288 266.213)" fill="#000000" data-original="#000000"></path><path d="M0 0a7.492 7.492 0 0 0-7.492-7.492A7.492 7.492 0 0 0-14.984 0a7.492 7.492 0 0 0 7.492 7.492A7.492 7.492 0 0 0 0 0" style="fill-opacity:1;fill-rule:nonzero;stroke:none" transform="translate(221.89 266.213)" fill="#000000" data-original="#000000"></path><path d="M0 0a7.492 7.492 0 0 0-7.492-7.492A7.492 7.492 0 0 0-14.984 0a7.492 7.492 0 0 0 7.492 7.492A7.492 7.492 0 0 0 0 0" style="fill-opacity:1;fill-rule:nonzero;stroke:none" transform="translate(263.492 266.213)" fill="#000000" data-original="#000000"></path><path d="M0 0a7.492 7.492 0 0 0-7.492-7.492A7.492 7.492 0 0 0-14.984 0a7.492 7.492 0 0 0 7.492 7.492A7.492 7.492 0 0 0 0 0" style="fill-opacity:1;fill-rule:nonzero;stroke:none" transform="translate(305.095 266.213)" fill="#000000" data-original="#000000"></path><path d="M0 0a7.492 7.492 0 0 0-7.492-7.492 7.492 7.492 0 1 0 0 14.984A7.492 7.492 0 0 0 0 0" style="fill-opacity:1;fill-rule:nonzero;stroke:none" transform="translate(346.697 266.213)" fill="#000000" data-original="#000000"></path><path d="M0 0a7.492 7.492 0 0 0-7.493-7.492A7.492 7.492 0 0 0-14.985 0a7.492 7.492 0 0 0 7.492 7.492A7.492 7.492 0 0 0 0 0" style="fill-opacity:1;fill-rule:nonzero;stroke:none" transform="translate(180.288 229.685)" fill="#000000" data-original="#000000"></path><path d="M0 0a7.492 7.492 0 0 0-7.492-7.492A7.492 7.492 0 0 0-14.984 0a7.492 7.492 0 0 0 7.492 7.492A7.492 7.492 0 0 0 0 0" style="fill-opacity:1;fill-rule:nonzero;stroke:none" transform="translate(221.89 229.685)" fill="#000000" data-original="#000000"></path><path d="M0 0a7.492 7.492 0 0 0-7.492-7.492A7.492 7.492 0 0 0-14.984 0a7.492 7.492 0 0 0 7.492 7.492A7.492 7.492 0 0 0 0 0" style="fill-opacity:1;fill-rule:nonzero;stroke:none" transform="translate(263.492 229.685)" fill="#000000" data-original="#000000"></path><path d="M0 0a7.492 7.492 0 0 0-7.492-7.492A7.492 7.492 0 0 0-14.984 0a7.492 7.492 0 0 0 7.492 7.492A7.492 7.492 0 0 0 0 0" style="fill-opacity:1;fill-rule:nonzero;stroke:none" transform="translate(305.095 229.685)" fill="#000000" data-original="#000000"></path><path d="M0 0a7.492 7.492 0 0 0-7.492-7.492 7.492 7.492 0 1 0 0 14.984A7.492 7.492 0 0 0 0 0" style="fill-opacity:1;fill-rule:nonzero;stroke:none" transform="translate(346.697 229.685)" fill="#000000" data-original="#000000"></path><path d="M0 0a7.492 7.492 0 0 0-7.493-7.492A7.492 7.492 0 1 0 0 0" style="fill-opacity:1;fill-rule:nonzero;stroke:none" transform="translate(180.288 193.155)" fill="#000000" data-original="#000000"></path><path d="M0 0a7.492 7.492 0 0 0-7.492-7.492A7.492 7.492 0 1 0 0 0" style="fill-opacity:1;fill-rule:nonzero;stroke:none" transform="translate(221.89 193.155)" fill="#000000" data-original="#000000"></path><path d="M0 0a7.492 7.492 0 0 0-7.492-7.492A7.492 7.492 0 1 0 0 0" style="fill-opacity:1;fill-rule:nonzero;stroke:none" transform="translate(263.492 193.155)" fill="#000000" data-original="#000000"></path><path d="M0 0a7.492 7.492 0 0 0-7.492-7.492A7.492 7.492 0 1 0 0 0" style="fill-opacity:1;fill-rule:nonzero;stroke:none" transform="translate(305.095 193.155)" fill="#000000" data-original="#000000"></path><path d="M0 0a7.492 7.492 0 0 0-7.492-7.492A7.493 7.493 0 1 0 0 0" style="fill-opacity:1;fill-rule:nonzero;stroke:none" transform="translate(346.697 193.155)" fill="#000000" data-original="#000000"></path><path d="M0 0a7.492 7.492 0 0 0-7.493-7.492A7.492 7.492 0 0 0-14.985 0a7.492 7.492 0 0 0 7.492 7.492A7.492 7.492 0 0 0 0 0" style="fill-opacity:1;fill-rule:nonzero;stroke:none" transform="translate(180.288 156.626)" fill="#000000" data-original="#000000"></path><path d="M0 0a7.492 7.492 0 0 0-7.492-7.492A7.492 7.492 0 0 0-14.984 0a7.492 7.492 0 0 0 7.492 7.492A7.492 7.492 0 0 0 0 0" style="fill-opacity:1;fill-rule:nonzero;stroke:none" transform="translate(221.89 156.626)" fill="#000000" data-original="#000000"></path><path d="M0 0a7.492 7.492 0 0 0-7.492-7.492A7.492 7.492 0 0 0-14.984 0a7.492 7.492 0 0 0 7.492 7.492A7.492 7.492 0 0 0 0 0" style="fill-opacity:1;fill-rule:nonzero;stroke:none" transform="translate(263.492 156.626)" fill="#000000" data-original="#000000"></path><path d="M0 0a7.492 7.492 0 0 0-7.492-7.492A7.492 7.492 0 0 0-14.984 0a7.492 7.492 0 0 0 7.492 7.492A7.492 7.492 0 0 0 0 0" style="fill-opacity:1;fill-rule:nonzero;stroke:none" transform="translate(305.095 156.626)" fill="#000000" data-original="#000000"></path><path d="M0 0a7.492 7.492 0 0 0-7.492-7.492 7.492 7.492 0 1 0 0 14.984A7.492 7.492 0 0 0 0 0" style="fill-opacity:1;fill-rule:nonzero;stroke:none" transform="translate(346.697 156.626)" fill="#000000" data-original="#000000"></path><path d="M0 0a7.492 7.492 0 0 0-7.493-7.492A7.492 7.492 0 0 0-14.985 0a7.492 7.492 0 0 0 7.492 7.492A7.492 7.492 0 0 0 0 0" style="fill-opacity:1;fill-rule:nonzero;stroke:none" transform="translate(180.288 120.098)" fill="#000000" data-original="#000000"></path><path d="M0 0a7.492 7.492 0 0 0-7.492-7.492A7.492 7.492 0 0 0-14.984 0a7.492 7.492 0 0 0 7.492 7.492A7.492 7.492 0 0 0 0 0" style="fill-opacity:1;fill-rule:nonzero;stroke:none" transform="translate(221.89 120.098)" fill="#000000" data-original="#000000"></path><path d="M0 0a7.492 7.492 0 0 0-7.492-7.492A7.492 7.492 0 0 0-14.984 0a7.492 7.492 0 0 0 7.492 7.492A7.492 7.492 0 0 0 0 0" style="fill-opacity:1;fill-rule:nonzero;stroke:none" transform="translate(263.492 120.098)" fill="#000000" data-original="#000000"></path><path d="M0 0a7.492 7.492 0 0 0-7.492-7.492A7.492 7.492 0 0 0-14.984 0a7.492 7.492 0 0 0 7.492 7.492A7.492 7.492 0 0 0 0 0" style="fill-opacity:1;fill-rule:nonzero;stroke:none" transform="translate(305.095 120.098)" fill="#000000" data-original="#000000"></path><path d="M0 0a7.492 7.492 0 0 0-7.492-7.492 7.492 7.492 0 1 0 0 14.984A7.492 7.492 0 0 0 0 0" style="fill-opacity:1;fill-rule:nonzero;stroke:none" transform="translate(346.697 120.098)" fill="#000000" data-original="#000000"></path><path d="M0 0v38.53h59.92v-93.742c0-16.547-13.413-29.96-29.96-29.96S0-71.759 0-55.212v21.009" style="stroke-width:15;stroke-linecap:round;stroke-linejoin:round;stroke-miterlimit:10;stroke-dasharray:none;stroke-opacity:1" transform="translate(226.04 466.127)" fill="none" stroke="#000000" stroke-width="15" stroke-linecap="round" stroke-linejoin="round" stroke-miterlimit="10" stroke-dasharray="none" stroke-opacity="" data-original="#000000" class=""></path><path d="M0 0h-232.703c-8.916 0-16.144 7.228-16.144 16.144v428.672c0 8.916 7.228 16.144 16.144 16.144H0c8.916 0 16.144-7.228 16.144-16.144V16.144C16.144 7.228 8.916 0 0 0Z" style="stroke-width:15;stroke-linecap:round;stroke-linejoin:round;stroke-miterlimit:10;stroke-dasharray:none;stroke-opacity:1" transform="translate(372.352 43.697)" fill="none" stroke="#000000" stroke-width="15" stroke-linecap="round" stroke-linejoin="round" stroke-miterlimit="10" stroke-dasharray="none" stroke-opacity="" data-original="#000000" class=""></path><path d="M0 0v-33.606a2.747 2.747 0 0 1 2.747-2.747h27.808c1.1 0 2.095.658 2.526 1.671L47.852 0Z" style="stroke-width:15;stroke-linecap:round;stroke-linejoin:round;stroke-miterlimit:10;stroke-dasharray:none;stroke-opacity:1" transform="translate(149.977 43.697)" fill="none" stroke="#000000" stroke-width="15" stroke-linecap="round" stroke-linejoin="round" stroke-miterlimit="10" stroke-dasharray="none" stroke-opacity="" data-original="#000000" class=""></path><path d="M0 0v-33.606a2.747 2.747 0 0 0-2.747-2.747h-27.808c-1.1 0-2.095.658-2.526 1.671L-47.852 0Z" style="stroke-width:15;stroke-linecap:round;stroke-linejoin:round;stroke-miterlimit:10;stroke-dasharray:none;stroke-opacity:1" transform="translate(362.022 43.697)" fill="none" stroke="#000000" stroke-width="15" stroke-linecap="round" stroke-linejoin="round" stroke-miterlimit="10" stroke-dasharray="none" stroke-opacity="" data-original="#000000" class=""></path><path d="M0 0h-161.922v219.766h264.99V0H34.531" style="stroke-width:15;stroke-linecap:round;stroke-linejoin:round;stroke-miterlimit:10;stroke-dasharray:none;stroke-opacity:1" transform="translate(285.427 83.272)" fill="none" stroke="#000000" stroke-width="15" stroke-linecap="round" stroke-linejoin="round" stroke-miterlimit="10" stroke-dasharray="none" stroke-opacity="" data-original="#000000" class=""></path><path d="M0 0a7.492 7.492 0 0 0-7.492-7.492A7.492 7.492 0 0 0-14.984 0a7.492 7.492 0 0 0 7.492 7.492A7.492 7.492 0 0 0 0 0" style="fill-opacity:1;fill-rule:nonzero;stroke:none" transform="translate(263.492 461.18)" fill="#000000" data-original="#000000"></path><path d="M0 0a7.492 7.492 0 0 0-7.492-7.492A7.492 7.492 0 0 0-14.984 0a7.492 7.492 0 0 0 7.492 7.492A7.492 7.492 0 0 0 0 0" style="fill-opacity:1;fill-rule:nonzero;stroke:none" transform="translate(263.492 424.432)" fill="#000000" data-original="#000000"></path><path d="M0 0h-17.815" style="stroke-width:15;stroke-linecap:round;stroke-linejoin:round;stroke-miterlimit:10;stroke-dasharray:none;stroke-opacity:1" transform="translate(86.595 224.325)" fill="none" stroke="#000000" stroke-width="15" stroke-linecap="round" stroke-linejoin="round" stroke-miterlimit="10" stroke-dasharray="none" stroke-opacity="" data-original="#000000" class=""></path><path d="M0 0h-17.815" style="stroke-width:15;stroke-linecap:round;stroke-linejoin:round;stroke-miterlimit:10;stroke-dasharray:none;stroke-opacity:1" transform="translate(86.595 161.761)" fill="none" stroke="#000000" stroke-width="15" stroke-linecap="round" stroke-linejoin="round" stroke-miterlimit="10" stroke-dasharray="none" stroke-opacity="" data-original="#000000" class=""></path><path d="M0 0h-62.88" style="stroke-width:15;stroke-linecap:round;stroke-linejoin:round;stroke-miterlimit:10;stroke-dasharray:none;stroke-opacity:1" transform="translate(86.595 193.043)" fill="none" stroke="#000000" stroke-width="15" stroke-linecap="round" stroke-linejoin="round" stroke-miterlimit="10" stroke-dasharray="none" stroke-opacity="" data-original="#000000" class=""></path><path d="M0 0h-42.561C-53.782 0-62.88 9.097-62.88 20.319s9.098 20.319 20.319 20.319h1.689" style="stroke-width:15;stroke-linecap:round;stroke-linejoin:round;stroke-miterlimit:10;stroke-dasharray:none;stroke-opacity:1" transform="translate(86.595 255.682)" fill="none" stroke="#000000" stroke-width="15" stroke-linecap="round" stroke-linejoin="round" stroke-miterlimit="10" stroke-dasharray="none" stroke-opacity="" data-original="#000000" class=""></path><path d="M0 0h-42.561C-53.782 0-62.88-9.097-62.88-20.319s9.098-20.319 20.319-20.319h1.689" style="stroke-width:15;stroke-linecap:round;stroke-linejoin:round;stroke-miterlimit:10;stroke-dasharray:none;stroke-opacity:1" transform="translate(86.595 130.63)" fill="none" stroke="#000000" stroke-width="15" stroke-linecap="round" stroke-linejoin="round" stroke-miterlimit="10" stroke-dasharray="none" stroke-opacity="" data-original="#000000" class=""></path><path d="M0 0h17.815" style="stroke-width:15;stroke-linecap:round;stroke-linejoin:round;stroke-miterlimit:10;stroke-dasharray:none;stroke-opacity:1" transform="translate(425.405 224.325)" fill="none" stroke="#000000" stroke-width="15" stroke-linecap="round" stroke-linejoin="round" stroke-miterlimit="10" stroke-dasharray="none" stroke-opacity="" data-original="#000000" class=""></path><path d="M0 0h17.815" style="stroke-width:15;stroke-linecap:round;stroke-linejoin:round;stroke-miterlimit:10;stroke-dasharray:none;stroke-opacity:1" transform="translate(425.405 161.761)" fill="none" stroke="#000000" stroke-width="15" stroke-linecap="round" stroke-linejoin="round" stroke-miterlimit="10" stroke-dasharray="none" stroke-opacity="" data-original="#000000" class=""></path><path d="M0 0h62.88" style="stroke-width:15;stroke-linecap:round;stroke-linejoin:round;stroke-miterlimit:10;stroke-dasharray:none;stroke-opacity:1" transform="translate(425.405 193.043)" fill="none" stroke="#000000" stroke-width="15" stroke-linecap="round" stroke-linejoin="round" stroke-miterlimit="10" stroke-dasharray="none" stroke-opacity="" data-original="#000000" class=""></path><path d="M0 0h42.561C53.782 0 62.88 9.097 62.88 20.319s-9.098 20.319-20.319 20.319h-1.689" style="stroke-width:15;stroke-linecap:round;stroke-linejoin:round;stroke-miterlimit:10;stroke-dasharray:none;stroke-opacity:1" transform="translate(425.405 255.682)" fill="none" stroke="#000000" stroke-width="15" stroke-linecap="round" stroke-linejoin="round" stroke-miterlimit="10" stroke-dasharray="none" stroke-opacity="" data-original="#000000" class=""></path><path d="M0 0h42.561C53.782 0 62.88-9.097 62.88-20.319s-9.098-20.319-20.319-20.319h-1.689" style="stroke-width:15;stroke-linecap:round;stroke-linejoin:round;stroke-miterlimit:10;stroke-dasharray:none;stroke-opacity:1" transform="translate(425.405 130.63)" fill="none" stroke="#000000" stroke-width="15" stroke-linecap="round" stroke-linejoin="round" stroke-miterlimit="10" stroke-dasharray="none" stroke-opacity="" data-original="#000000" class=""></path></g></g></svg>