<svg xmlns="http://www.w3.org/2000/svg" version="1.1" xmlns:xlink="http://www.w3.org/1999/xlink" width="512" height="512" x="0" y="0" viewBox="0 0 64 64" style="enable-background:new 0 0 512 512" xml:space="preserve" class=""><g><path d="m59.855 51.012-4.062-15.761V10.386a3.31 3.31 0 0 0-3.53-3.024H11.737a3.31 3.31 0 0 0-3.53 3.024v18.773a1 1 0 0 0 2 0V10.386c0-.545.714-1.024 1.53-1.024h40.526c.816 0 1.53.479 1.53 1.024v23.991H9.207a1.082 1.082 0 0 0-.969.75L4.145 51.012A4.5 4.5 0 0 0 8.5 56.638h41.009a1 1 0 0 0 0-2H8.5a2.475 2.475 0 0 1-2.486-2.376h51.968a2.493 2.493 0 0 1-2.482 2.376 1 1 0 0 0 0 2 4.528 4.528 0 0 0 4.355-5.626zm-5.836-14.635L57.6 50.262H39.2v-3.13a3 3 0 0 0-3-3h-8.4a3 3 0 0 0-3 3v3.13H6.4l3.581-13.885zM26.8 50.262v-3.13a1 1 0 0 1 1-1h8.4a1 1 0 0 1 1 1v3.13z" fill="#000000" opacity="1" data-original="#000000" class=""></path></g></svg>