<svg xmlns="http://www.w3.org/2000/svg" version="1.1" xmlns:xlink="http://www.w3.org/1999/xlink" width="512" height="512" x="0" y="0" viewBox="0 0 64 64" style="enable-background:new 0 0 512 512" xml:space="preserve" class=""><g><g data-name="Layer 11"><path d="M47 0H17a3 3 0 0 0-3 3v58a3 3 0 0 0 3 3h2a3 3 0 0 0 3-3h20a3 3 0 0 0 3 3h2a3 3 0 0 0 3-3V3a3 3 0 0 0-3-3zM19 62h-2a1 1 0 0 1-1-1h4a1 1 0 0 1-1 1zm-3-3V22h25a1 1 0 0 0 0-2H16V3a1 1 0 0 1 1-1h30a1 1 0 0 1 1 1v17h-3a1 1 0 0 0 0 2h3v37zm31 3h-2a1 1 0 0 1-1-1h4a1 1 0 0 1-1 1z" fill="#000000" opacity="1" data-original="#000000" class=""></path><path d="M19.5 6A2.5 2.5 0 0 0 17 8.5v8a2.5 2.5 0 0 0 5 0v-8A2.5 2.5 0 0 0 19.5 6zm.5 10.5a.5.5 0 0 1-1 0v-8a.5.5 0 0 1 1 0zM19.5 23a2.5 2.5 0 0 0-2.5 2.5v11a2.5 2.5 0 0 0 5 0v-11a2.5 2.5 0 0 0-2.5-2.5zm.5 13.5a.5.5 0 0 1-1 0v-11a.5.5 0 0 1 1 0z" fill="#000000" opacity="1" data-original="#000000" class=""></path></g></g></svg>