<svg xmlns="http://www.w3.org/2000/svg" version="1.1" xmlns:xlink="http://www.w3.org/1999/xlink" width="512" height="512" x="0" y="0" viewBox="0 0 64 64" style="enable-background:new 0 0 512 512" xml:space="preserve" class=""><g><path d="M51 30.66a1 1 0 0 0-1 1V59a3.003 3.003 0 0 1-3 3H5a3.003 3.003 0 0 1-3-3V5a3.003 3.003 0 0 1 3-3h42a3.003 3.003 0 0 1 3 3v7.34a1 1 0 0 0 2 0V5a5.006 5.006 0 0 0-5-5H5a5.006 5.006 0 0 0-5 5v54a5.006 5.006 0 0 0 5 5h42a5.006 5.006 0 0 0 5-5V31.66a1 1 0 0 0-1-1z" fill="#000000" opacity="1" data-original="#000000" class=""></path><path d="M47 17.34a1 1 0 0 0 1-1V7a1 1 0 0 0-1-1H5a1 1 0 0 0-1 1v46a1 1 0 0 0 1 1h42a1 1 0 0 0 1-1V35.65a1 1 0 1 0-2 0V52H6V8h40v8.34a1 1 0 0 0 1 1zM28 5a1 1 0 0 0 0-2h-4a1 1 0 0 0 0 2zM23 58a3 3 0 1 0 3-3 3.003 3.003 0 0 0-3 3zm4 0a1 1 0 1 1-1-1 1 1 0 0 1 1 1z" fill="#000000" opacity="1" data-original="#000000" class=""></path><path d="M62.878 10.121a3.833 3.833 0 0 0-5.414 0L29.293 38.293a.999.999 0 0 0-.274.51l-1 5A1 1 0 0 0 29 45a1.029 1.029 0 0 0 .196-.02l5-1a1.002 1.002 0 0 0 .511-.274l28.171-28.17a3.828 3.828 0 0 0 0-5.415zm-1.414 4L33.507 42.08l-3.232.647.646-3.233 27.957-27.958a1.829 1.829 0 1 1 2.586 2.586z" fill="#000000" opacity="1" data-original="#000000" class=""></path></g></svg>