<svg xmlns="http://www.w3.org/2000/svg" version="1.1" xmlns:xlink="http://www.w3.org/1999/xlink" width="512" height="512" x="0" y="0" viewBox="0 0 512 512" style="enable-background:new 0 0 512 512" xml:space="preserve" class=""><g><path d="M495.644 80.032H16.356C7.337 80.032 0 87.369 0 96.388v269.324c0 9.019 7.337 16.356 16.356 16.356h479.288c9.019 0 16.356-7.337 16.356-16.356V96.388c0-9.019-7.337-16.356-16.356-16.356zm1.783 285.679c0 .967-.817 1.783-1.783 1.783-509.622-.865-481.071 1.797-481.071-1.783V96.388c0-.966.817-1.783 1.783-1.783h479.288c.966 0 1.783.816 1.783 1.783zm-98.12 52.292c-65.326-28.654-221.434-28.593-286.617.004a7.287 7.287 0 0 0 5.856 13.345c61.362-26.922 213.467-26.953 274.907-.004a7.285 7.285 0 0 0 9.6-3.746 7.285 7.285 0 0 0-3.746-9.599z" fill="#000000" opacity="1" data-original="#000000" class=""></path></g></svg>