<svg xmlns="http://www.w3.org/2000/svg" version="1.1" xmlns:xlink="http://www.w3.org/1999/xlink" width="512" height="512" x="0" y="0" viewBox="0 0 463 463" style="enable-background:new 0 0 512 512" xml:space="preserve" class=""><g><path d="M367.5 0h-272C73.72 0 56 17.72 56 39.5v368c0 10.336 6.71 19.128 16 22.266v9.734c0 12.958 10.542 23.5 23.5 23.5h272c12.958 0 23.5-10.542 23.5-23.5v-9.734c9.29-3.138 16-11.93 16-22.266v-368C407 17.72 389.28 0 367.5 0zm-272 15h272c13.51 0 24.5 10.991 24.5 24.5V96H71V39.5C71 25.991 81.99 15 95.5 15zm272 433h-272c-4.687 0-8.5-3.813-8.5-8.5V431h289v8.5c0 4.687-3.813 8.5-8.5 8.5zm16-32h-304c-4.687 0-8.5-3.813-8.5-8.5V111h321v296.5c0 4.687-3.813 8.5-8.5 8.5z" fill="#000000" opacity="1" data-original="#000000" class=""></path><path d="M231.5 136C161.196 136 104 193.196 104 263.5S161.196 391 231.5 391 359 333.804 359 263.5 301.804 136 231.5 136zm0 240C169.468 376 119 325.533 119 263.5S169.468 151 231.5 151 344 201.467 344 263.5 293.532 376 231.5 376zM279.5 79c12.958 0 23.5-10.542 23.5-23.5S292.458 32 279.5 32 256 42.542 256 55.5 266.542 79 279.5 79zm0-32c4.687 0 8.5 3.813 8.5 8.5s-3.813 8.5-8.5 8.5-8.5-3.813-8.5-8.5 3.813-8.5 8.5-8.5zM343.5 79c12.958 0 23.5-10.542 23.5-23.5S356.458 32 343.5 32 320 42.542 320 55.5 330.542 79 343.5 79zm0-32c4.687 0 8.5 3.813 8.5 8.5s-3.813 8.5-8.5 8.5-8.5-3.813-8.5-8.5 3.813-8.5 8.5-8.5zM111.5 79h104c8.547 0 15.5-6.953 15.5-15.5v-16c0-8.547-6.953-15.5-15.5-15.5h-104C102.953 32 96 38.953 96 47.5v16c0 8.547 6.953 15.5 15.5 15.5zm-.5-31.5a.5.5 0 0 1 .5-.5h104a.5.5 0 0 1 .5.5v16a.5.5 0 0 1-.5.5h-104a.5.5 0 0 1-.5-.5v-16z" fill="#000000" opacity="1" data-original="#000000" class=""></path><path d="M231.5 168c-52.659 0-95.5 42.841-95.5 95.5s42.841 95.5 95.5 95.5 95.5-42.841 95.5-95.5-42.841-95.5-95.5-95.5zm0 176c-44.388 0-80.5-36.112-80.5-80.5s36.112-80.5 80.5-80.5 80.5 36.112 80.5 80.5-36.112 80.5-80.5 80.5z" fill="#000000" opacity="1" data-original="#000000" class=""></path><path d="M231.5 200c-4.143 0-7.5 3.358-7.5 7.5s3.357 7.5 7.5 7.5c26.743 0 48.5 21.757 48.5 48.5 0 4.142 3.357 7.5 7.5 7.5s7.5-3.358 7.5-7.5c0-35.014-28.486-63.5-63.5-63.5z" fill="#000000" opacity="1" data-original="#000000" class=""></path></g></svg>