<svg xmlns="http://www.w3.org/2000/svg" version="1.1" xmlns:xlink="http://www.w3.org/1999/xlink" width="512" height="512" x="0" y="0" viewBox="0 0 64 64" style="enable-background:new 0 0 512 512" xml:space="preserve" class=""><g><path d="m41.79 13.57-.908-7.752A4.32 4.32 0 0 0 36.592 2H25.248a4.32 4.32 0 0 0-4.29 3.818l-.906 7.752c-3.087.533-5.445 3.223-5.445 6.46v23.949c0 3.237 2.359 5.927 5.446 6.46l.905 7.743A4.32 4.32 0 0 0 25.248 62h11.344a4.32 4.32 0 0 0 4.29-3.818l.906-7.744a6.564 6.564 0 0 0 5.435-6.317h.79c1.13 0 2.05-.92 2.05-2.05v-5.514c0-1.13-.92-2.05-2.05-2.05h-.783v-4.232a2.758 2.758 0 0 0 2.159-2.687v-4.1A2.758 2.758 0 0 0 47.23 20.8v-.771c0-3.236-2.356-5.925-5.44-6.46zM22.943 6.05A2.32 2.32 0 0 1 25.248 4h11.344a2.32 2.32 0 0 1 2.304 2.05l.867 7.413H22.078zm15.952 51.9A2.32 2.32 0 0 1 36.592 60H25.248a2.32 2.32 0 0 1-2.304-2.05l-.865-7.409h17.683zm1.812-9.413H21.13a4.564 4.564 0 0 1-4.523-4.558v-23.95a4.567 4.567 0 0 1 4.562-4.561h19.5a4.567 4.567 0 0 1 4.561 4.562v1.087c-.01.005-.017.015-.026.02a2.675 2.675 0 0 0-.484.377c-.033.032-.062.065-.092.099a2.703 2.703 0 0 0-.342.45c-.012.02-.027.037-.038.057a2.74 2.74 0 0 0-.273.719 2.8 2.8 0 0 0-.084.648v4.101c0 .227.035.443.085.654a2.69 2.69 0 0 0 1.255 1.721V43.98a4.564 4.564 0 0 1-4.523 4.558zm6.525-12.002.83.022v5.514a.05.05 0 0 1-.05.05h-.78zm.156-8.947a.748.748 0 0 1-.756.756.616.616 0 0 1-.184-.03.73.73 0 0 1-.558-.726v-4.1c0-.355.23-.654.64-.75a.756.756 0 0 1 .858.749v4.101z" fill="#000000" opacity="1" data-original="#000000" class=""></path></g></svg>